<svg width="192" height="192" viewBox="0 0 192 192" fill="none" xmlns="http://www.w3.org/2000/svg">
<path d="M95 5C144.706 5 185 45.2944 185 95C185 144.706 144.706 185 95 185C45.2944 185 5 144.706 5 95C5 45.2944 45.2944 5 95 5ZM68.2988 62C58.3817 62.0001 49.5079 64.58 42.2812 70.2822C35.545 75.5057 30.6012 82.3152 27.4346 90.4912C24.3719 98.3989 22.9039 106.706 23.0049 115.351L23.0977 123.258H59.7393L60.0596 115.591C60.2074 112.051 60.8276 108.985 61.832 106.323L61.8555 106.261C62.822 103.634 64.0281 101.896 65.2969 100.729C66.218 99.9418 67.3367 99.4668 69.1045 99.4668C71.602 99.4669 73.8229 100.246 76.0293 102.102L76.1123 102.172L76.1982 102.239C79.5692 104.921 83.0825 108.112 86.7363 111.836C91.0646 116.247 95.9694 120.116 101.421 123.449L101.494 123.494L101.568 123.538C108.069 127.324 115.664 129 123.974 129C133.675 129 142.381 126.531 149.508 121.054L149.517 121.047L149.524 121.041C156.294 115.811 161.259 108.984 164.436 100.782C167.495 92.883 169 84.5143 169 75.7422V67.7422H132.271L131.945 75.4014C131.799 78.8333 131.183 81.9302 130.149 84.7393L130.13 84.791L130.111 84.8438C129.251 87.2864 128.064 89.0337 126.651 90.3232C125.895 91.0085 124.849 91.5332 122.9 91.5332C120.36 91.5332 118.128 90.7663 115.95 89.0117C112.715 86.2148 109.309 82.9604 105.735 79.2314H105.734C101.51 74.7303 96.5708 70.8589 90.9727 67.5986L90.9717 67.5996C84.4444 63.7069 76.7457 62 68.2988 62ZM101.93 114.229C101.695 114.065 101.463 113.899 101.231 113.733C101.463 113.899 101.695 114.065 101.93 114.229ZM100.83 113.445C100.628 113.298 100.428 113.149 100.228 113C100.428 113.149 100.628 113.298 100.83 113.445ZM99.7646 112.656C99.5327 112.481 99.3033 112.303 99.0742 112.125C99.3033 112.303 99.5327 112.481 99.7646 112.656ZM98.7637 111.885C98.7153 111.847 98.6664 111.81 98.6182 111.771L97.8027 111.116C98.12 111.375 98.4406 111.631 98.7637 111.885ZM52.6006 110.055C52.6124 109.984 52.6226 109.914 52.6348 109.844L52.6514 109.751C52.6336 109.852 52.6176 109.953 52.6006 110.055ZM54.377 103.423C54.4491 103.228 54.5225 103.036 54.5977 102.846C54.5226 103.036 54.4491 103.228 54.377 103.423ZM54.6914 102.615C54.7343 102.509 54.7775 102.404 54.8213 102.3C54.7775 102.404 54.7342 102.509 54.6914 102.615ZM54.9248 102.054C54.9882 101.907 55.0528 101.761 55.1182 101.616C55.0527 101.761 54.9883 101.907 54.9248 102.054ZM56.083 99.7051C55.7681 100.265 55.4713 100.849 55.1914 101.456C55.4711 100.848 55.7679 100.264 56.083 99.7041V99.7051ZM112.392 96.3213C112.204 96.1946 112.018 96.0635 111.832 95.9297C112.018 96.0636 112.204 96.1946 112.392 96.3213ZM111.698 95.832C111.633 95.7842 111.567 95.7373 111.502 95.6885L111.163 95.4277C111.34 95.5664 111.519 95.7005 111.698 95.832ZM139.6 79.5938C139.566 79.8451 139.53 80.0955 139.491 80.3447L139.369 81.0889C139.455 80.5945 139.532 80.0957 139.6 79.5928V79.5938ZM139.844 77.3018L139.775 78.0723C139.8 77.8165 139.823 77.5597 139.843 77.3018L139.897 76.5254C139.882 76.7852 139.864 77.044 139.844 77.3018ZM90.373 76.6572C90.4781 76.7278 90.5832 76.798 90.6875 76.8691C90.5831 76.7981 90.4781 76.7278 90.373 76.6572ZM89.6924 76.2051C89.7516 76.2437 89.8101 76.2834 89.8691 76.3223C89.7773 76.2619 89.6852 76.2016 89.5928 76.1416C89.6258 76.1631 89.6594 76.1836 89.6924 76.2051ZM85.5059 73.7051L85.9932 73.9658C85.8319 73.8777 85.6694 73.7912 85.5059 73.7061L85.0117 73.4541C85.1776 73.5363 85.3423 73.6199 85.5059 73.7051ZM76.1406 70.6348C76.548 70.7053 76.9507 70.781 77.3486 70.8633C77.1497 70.8222 76.9494 70.7833 76.748 70.7451L76.1406 70.6348ZM62.2998 70.3975C62.0249 70.4355 61.7517 70.475 61.4805 70.5186C61.7199 70.4802 61.9608 70.4443 62.2031 70.4102C62.2353 70.4056 62.2676 70.4019 62.2998 70.3975ZM63.6748 70.2305H63.6758H63.6748Z" fill="#D3869B"/>
</svg>
